<svg width="35" height="35" viewBox="0 0 35 35" fill="none" xmlns="http://www.w3.org/2000/svg">
<path d="M8.56497 32.6435L8.56253 32.6427C8.36231 32.5739 7.95156 32.4111 7.57789 32.26C7.44148 32.2048 7.31235 32.1521 7.20384 32.1076V23.1494L12.6713 16.7202L12.7594 16.6166L12.7829 16.4825L13.222 13.9751H13.8115C14.6285 13.9751 15.2231 14.614 15.2231 15.4944V16.1271C15.2231 17.549 15.1433 18.9824 14.971 20.3874L14.971 20.3874L14.9705 20.3914L14.9167 20.8626L14.8531 21.4194H15.4135H19.5731C20.0214 21.4194 20.4922 21.637 20.8585 22.0032C21.2247 22.3695 21.4423 22.8403 21.4423 23.2886V31.4194C21.4423 31.8677 21.2247 32.3385 20.8585 32.7048C20.4922 33.071 20.0214 33.2886 19.5731 33.2886H12.4654C11.0367 33.2886 9.89479 33.1083 8.56497 32.6435ZM23.7596 6.88091H24.3206L24.2563 6.3236L24.2159 5.9736C24.0968 4.94072 24.0308 3.89647 24.0308 2.85399V2.3963C24.0308 1.81692 24.4189 1.41553 24.9442 1.41553H25.265L25.5691 3.14263L25.5927 3.27655L25.6809 3.38008L29.6538 8.04572V14.4879C29.594 14.5127 29.5288 14.5396 29.4611 14.5673C29.1864 14.6799 28.8905 14.7987 28.7511 14.8471L28.748 14.8482C27.7835 15.1909 26.9657 15.3175 25.9404 15.3175H20.7308C20.4438 15.3175 20.1312 15.1772 19.8829 14.9288C19.6345 14.6804 19.4942 14.3678 19.4942 14.0809V8.11745H19.4943L19.4942 8.10988C19.4899 7.82598 19.626 7.51596 19.872 7.26864C20.1181 7.0213 20.4302 6.88091 20.7173 6.88091H23.7596ZM4.84423 22.4425V32.9521H0.769226V22.4425H4.84423ZM31.65 15.0617V7.6213H34.3788V15.0617H31.65Z" stroke="#2882FF"/>
</svg>
