<svg width="30" height="30" viewBox="0 0 30 30" fill="none" xmlns="http://www.w3.org/2000/svg">
<g clip-path="url(#clip0_297_963)">
<path d="M25.6058 25.606C31.4635 19.7483 31.4635 10.251 25.6058 4.39327C19.7481 -1.46446 10.2508 -1.46446 4.39307 4.39327C-1.46466 10.251 -1.46466 19.7483 4.39307 25.606C10.2508 31.4637 19.7481 31.4637 25.6058 25.606Z" fill="url(#paint0_linear_297_963)"/>
<path d="M24.5997 24.4962C29.9016 19.1943 29.9016 10.5983 24.5997 5.2964C19.2978 -0.00548654 10.7018 -0.00548755 5.39989 5.2964C0.0980124 10.5983 0.0980124 19.1943 5.39989 24.4962C10.7018 29.7981 19.2978 29.7981 24.5997 24.4962Z" fill="url(#paint1_linear_297_963)"/>
<path style="mix-blend-mode:multiply" d="M1.42334 14.8959C1.42334 22.3941 7.50153 28.6087 14.9997 28.6087C22.4978 28.6087 28.576 22.3941 28.576 14.8959C28.576 7.39782 22.4978 1.52432 14.9997 1.52432C7.50153 1.52432 1.42334 7.39782 1.42334 14.8959Z" fill="url(#paint2_linear_297_963)"/>
<g style="mix-blend-mode:multiply">
<path style="mix-blend-mode:multiply" d="M28.054 14.8959C28.054 7.39781 22.2098 1.31961 15.0003 1.31961C22.4985 1.31961 28.5773 7.39781 28.5773 14.8959C28.5773 22.3941 22.4991 28.4722 15.0003 28.4722C22.2098 28.4722 28.054 22.3941 28.054 14.8959Z" fill="url(#paint3_radial_297_963)"/>
<path style="mix-blend-mode:multiply" d="M14.9997 1.31961C7.79016 1.31961 1.946 7.39781 1.946 14.8959C1.946 22.3941 7.79016 28.4722 14.9997 28.4722C7.50153 28.4722 1.42334 22.3941 1.42334 14.8959C1.42334 7.39781 7.50153 1.31961 14.9997 1.31961Z" fill="url(#paint4_radial_297_963)"/>
</g>
<path d="M14.896 14.552C13.3484 14.6155 13.0114 16.0695 11.6324 17.4089C9.60927 19.3734 10.0255 21.0458 11.2885 21.3753C12.5515 21.7049 13.6009 20.2713 14.9662 20.2781C14.9703 20.2781 14.9744 20.2781 14.9792 20.2781C14.9833 20.2781 14.9874 20.2781 14.9922 20.2781C16.3568 20.2317 17.4472 21.6346 18.7 21.2682C19.9527 20.9025 20.3205 19.2192 18.2414 17.3134C16.8242 16.0149 16.4455 14.5705 14.8966 14.552H14.896Z" fill="#C67214"/>
<path d="M11.1431 13.4589C12.0165 14.6237 12.1155 16.0245 11.3649 16.5874C10.6137 17.1503 9.29744 16.6625 8.42406 15.4977C7.55068 14.333 7.45174 12.9322 8.2023 12.3692C8.95355 11.8063 10.2698 12.2942 11.1431 13.4589Z" fill="#C67214"/>
<path d="M18.6153 13.3511C17.7761 14.5404 17.7174 15.944 18.4843 16.4851C19.2513 17.0261 20.5531 16.5001 21.3924 15.3108C22.2317 14.1215 22.2904 12.7179 21.5234 12.1768C20.7565 11.6357 19.4546 12.1618 18.6153 13.3511Z" fill="#C67214"/>
<path d="M14.4354 10.4485C14.7261 11.9557 14.1747 13.33 13.2024 13.5176C12.2308 13.7052 11.2066 12.6353 10.9159 11.1274C10.6253 9.62013 11.1766 8.24592 12.1489 8.05828C13.1205 7.87064 14.1447 8.94053 14.4354 10.4485Z" fill="#C67214"/>
<path d="M15.2378 10.4369C14.9908 11.9523 15.5817 13.3095 16.5588 13.4692C17.5359 13.6288 18.528 12.5296 18.7757 11.0141C19.0227 9.49869 18.4318 8.14154 17.4547 7.98187C16.4776 7.82221 15.4855 8.92144 15.2378 10.4369Z" fill="#C67214"/>
<path d="M14.5876 14.0778C13.04 14.1413 12.703 15.5953 11.324 16.9347C9.30086 18.8992 9.71708 20.5716 10.9801 20.9011C12.2431 21.2307 13.2925 19.7971 14.6578 19.8039C14.6619 19.8039 14.666 19.8039 14.6708 19.8039C14.6749 19.8039 14.679 19.8039 14.6838 19.8039C16.0484 19.7575 17.1388 21.1604 18.3915 20.794C19.6443 20.4283 20.0121 18.745 17.933 16.8392C16.5158 15.5407 16.1371 14.0962 14.5882 14.0778H14.5876Z" fill="url(#paint5_linear_297_963)"/>
<path d="M10.8347 12.984C11.7081 14.1488 11.8071 15.5496 11.0565 16.1125C10.3052 16.6754 8.98903 16.1876 8.11565 15.0228C7.24227 13.8581 7.14333 12.4573 7.89389 11.8944C8.64514 11.3314 9.96135 11.8193 10.8347 12.984Z" fill="url(#paint6_linear_297_963)"/>
<path d="M18.3069 12.8762C17.4677 14.0655 17.409 15.4691 18.1759 16.0102C18.9429 16.5513 20.2447 16.0252 21.084 14.8359C21.9233 13.6466 21.982 12.243 21.215 11.7019C20.4481 11.1609 19.1462 11.6869 18.3069 12.8762Z" fill="url(#paint7_linear_297_963)"/>
<path d="M14.127 9.97427C14.4176 11.4815 13.8663 12.8557 12.894 13.0434C11.9224 13.231 10.8982 12.1611 10.6075 10.6532C10.3168 9.14592 10.8682 7.77171 11.8405 7.58407C12.8121 7.39643 13.8363 8.46632 14.127 9.97427Z" fill="url(#paint8_linear_297_963)"/>
<path d="M14.9294 9.96268C14.6824 11.4781 15.2733 12.8353 16.2504 12.995C17.2275 13.1546 18.2196 12.0554 18.4673 10.5399C18.7143 9.02448 18.1234 7.66732 17.1463 7.50766C16.1692 7.34799 15.1771 8.44723 14.9294 9.96268Z" fill="url(#paint9_linear_297_963)"/>
</g>
<defs>
<linearGradient id="paint0_linear_297_963" x1="-0.000390958" y1="14.9995" x2="29.9996" y2="14.9995" gradientUnits="userSpaceOnUse">
<stop stop-color="#D99919"/>
<stop offset="0.32" stop-color="#FFD02A"/>
<stop offset="0.68" stop-color="#F9F093"/>
<stop offset="1" stop-color="#ECC027"/>
</linearGradient>
<linearGradient id="paint1_linear_297_963" x1="1.4238" y1="14.8962" x2="28.5771" y2="14.8962" gradientUnits="userSpaceOnUse">
<stop stop-color="#DDA519"/>
<stop offset="0.32" stop-color="#B57A12"/>
<stop offset="0.68" stop-color="#FED74A"/>
<stop offset="1" stop-color="#EBCB35"/>
</linearGradient>
<linearGradient id="paint2_linear_297_963" x1="15.0003" y1="14.185" x2="15.0003" y2="36.9666" gradientUnits="userSpaceOnUse">
<stop offset="0.02" stop-color="white" stop-opacity="0"/>
<stop offset="0.64" stop-color="#F7A826"/>
</linearGradient>
<radialGradient id="paint3_radial_297_963" cx="0" cy="0" r="1" gradientUnits="userSpaceOnUse" gradientTransform="translate(14.8652 14.4606) rotate(180) scale(36.854 36.854)">
<stop offset="0.02" stop-color="white" stop-opacity="0"/>
<stop offset="1" stop-color="#F7A826"/>
</radialGradient>
<radialGradient id="paint4_radial_297_963" cx="0" cy="0" r="1" gradientUnits="userSpaceOnUse" gradientTransform="translate(14.8652 0.0341019) rotate(180) scale(36.854)">
<stop offset="0.02" stop-color="white" stop-opacity="0"/>
<stop offset="1" stop-color="#F7A826"/>
</radialGradient>
<linearGradient id="paint5_linear_297_963" x1="9.91905" y1="17.5134" x2="19.4109" y2="17.5134" gradientUnits="userSpaceOnUse">
<stop stop-color="#F9F08D"/>
<stop offset="0.32" stop-color="#F9EF87"/>
<stop offset="0.68" stop-color="#FCF18D"/>
<stop offset="1" stop-color="#E1AC18"/>
</linearGradient>
<linearGradient id="paint6_linear_297_963" x1="7.38965" y1="14.0034" x2="11.56" y2="14.0034" gradientUnits="userSpaceOnUse">
<stop stop-color="#F9F08D"/>
<stop offset="0.32" stop-color="#F9EF87"/>
<stop offset="0.68" stop-color="#FCF18D"/>
<stop offset="1" stop-color="#E1AC18"/>
</linearGradient>
<linearGradient id="paint7_linear_297_963" x1="17.6369" y1="13.8554" x2="21.7541" y2="13.8554" gradientUnits="userSpaceOnUse">
<stop stop-color="#F9F08D"/>
<stop offset="0.32" stop-color="#F9EF87"/>
<stop offset="0.68" stop-color="#FCF18D"/>
<stop offset="1" stop-color="#E1AC18"/>
</linearGradient>
<linearGradient id="paint8_linear_297_963" x1="10.5297" y1="10.3134" x2="14.2048" y2="10.3134" gradientUnits="userSpaceOnUse">
<stop stop-color="#F9F08D"/>
<stop offset="0.32" stop-color="#F9EF87"/>
<stop offset="0.68" stop-color="#FCF18D"/>
<stop offset="1" stop-color="#E1AC18"/>
</linearGradient>
<linearGradient id="paint9_linear_297_963" x1="14.8727" y1="10.2513" x2="18.5225" y2="10.2513" gradientUnits="userSpaceOnUse">
<stop stop-color="#F9F08D"/>
<stop offset="0.32" stop-color="#F9EF87"/>
<stop offset="0.68" stop-color="#FCF18D"/>
<stop offset="1" stop-color="#E1AC18"/>
</linearGradient>
<clipPath id="clip0_297_963">
<rect width="30" height="30" fill="white"/>
</clipPath>
</defs>
</svg>
