<svg width="30" height="20" viewBox="0 0 30 20" fill="none" xmlns="http://www.w3.org/2000/svg">
<g id="credit-card-color-icon 1" clip-path="url(#clip0_918_3145)">
<path id="Vector" d="M1.82723 0.0339508H28.0991C28.5937 0.0339508 29.0432 0.236562 29.3685 0.561923L29.4008 0.597318C29.7079 0.92103 29.897 1.35684 29.897 1.83175V18.2305C29.897 19.2177 29.0863 20.0285 28.0991 20.0285H1.82723C0.838712 20.0285 0.0292969 19.219 0.0292969 18.2305V1.83175C0.0292969 1.33917 0.23129 0.890377 0.557063 0.563779L0.560431 0.56048C0.886822 0.235531 1.33521 0.0339508 1.82723 0.0339508Z" fill="#D54C3D"/>
<path id="Vector_2" fill-rule="evenodd" clip-rule="evenodd" d="M1.82702 0.561371H28.0988C28.7976 0.561371 29.3692 1.13567 29.3692 1.83175V18.2305C29.3692 18.9266 28.7949 19.5009 28.0988 19.5009H1.82702C1.13094 19.5009 0.556641 18.9293 0.556641 18.2305V1.83175C0.556641 1.13299 1.12826 0.561371 1.82702 0.561371Z" fill="#ED5444"/>
<path id="Vector_3" d="M3.39481 13.0465C3.24296 13.0465 3.09733 12.9862 2.98996 12.8788C2.88259 12.7715 2.82227 12.6258 2.82227 12.474C2.82227 12.3221 2.88259 12.1765 2.98996 12.0691C3.09733 11.9618 3.24296 11.9014 3.39481 11.9014H14.9254C15.0772 11.9014 15.2229 11.9618 15.3302 12.0691C15.4376 12.1765 15.4979 12.3221 15.4979 12.474C15.4979 12.6258 15.4376 12.7715 15.3302 12.8788C15.2229 12.9862 15.0772 13.0465 14.9254 13.0465H3.39481ZM20.0452 11.2325C20.8997 11.2325 21.6578 11.6445 22.132 12.2809C22.6062 11.6445 23.3644 11.2325 24.2191 11.2325C25.6555 11.2325 26.8201 12.397 26.8201 13.8335C26.8201 15.27 25.6555 16.4346 24.2191 16.4346C23.3644 16.4346 22.6062 16.0224 22.132 15.3861C21.6578 16.0224 20.8997 16.4346 20.0452 16.4346C18.6086 16.4346 17.4441 15.27 17.4441 13.8335C17.4441 12.397 18.6086 11.2325 20.0452 11.2325ZM3.39481 15.7658C3.24405 15.7641 3.10002 15.7031 2.994 15.5959C2.88797 15.4887 2.8285 15.344 2.8285 15.1932C2.8285 15.0425 2.88797 14.8978 2.994 14.7906C3.10002 14.6834 3.24405 14.6223 3.39481 14.6207H12.0896C12.2396 14.6235 12.3824 14.6851 12.4875 14.7922C12.5925 14.8992 12.6514 15.0432 12.6514 15.1932C12.6514 15.3432 12.5925 15.4872 12.4875 15.5943C12.3824 15.7014 12.2396 15.7629 12.0896 15.7658H3.39481Z" fill="#F8D14A"/>
<path id="Vector_4" fill-rule="evenodd" clip-rule="evenodd" d="M4.30343 4.0989H8.21504C8.71387 4.0989 9.12205 4.50708 9.12205 5.00591V5.20405H3.39648V5.00591C3.39648 4.50708 3.80459 4.0989 4.30343 4.0989ZM9.12205 5.51615V7.44976H7.34583V5.51615H9.12205ZM7.0338 7.44976H5.48274V5.51615H7.0338V7.44976ZM5.17064 7.44976H3.39648V5.51615H5.17064V7.44976ZM9.12205 7.76185V7.96309C9.12205 8.46185 8.7138 8.87003 8.21504 8.87003H4.30343C3.80466 8.87003 3.39648 8.46192 3.39648 7.96309V7.76185H9.12205Z" fill="#DACD71"/>
</g>
<defs>
<clipPath id="clip0_918_3145">
<rect width="29.8969" height="20" fill="white"/>
</clipPath>
</defs>
</svg>
