<svg width="35" height="33" viewBox="0 0 35 33" fill="none" xmlns="http://www.w3.org/2000/svg">
<g clip-path="url(#clip0_289_1172)">
<path d="M29.1667 12.6583V5.48333L32.6667 1.98333V13.9767H33.8333V0.583333C33.8333 0.513333 33.8217 0.431667 33.7983 0.361667C33.705 0.14 33.495 0 33.2617 0H5.27333C5.12166 0 4.97 0.0583333 4.865 0.175L0.198331 4.84167C0.0933307 4.94667 0.0233307 5.09833 0.0233307 5.25V27.3933C0.0233307 27.72 0.279997 27.9767 0.606664 27.9767H28.5833C28.91 27.9767 29.1667 27.72 29.1667 27.3933V20.4167C29.9017 21.49 30.3333 22.785 30.3333 24.185C30.3333 27.8833 27.3233 30.8817 23.6367 30.8817C23.31 30.8817 23.0533 31.1383 23.0533 31.465C23.0533 31.7917 23.31 32.0483 23.6367 32.0483H24.8033C30.4267 32.0483 35 27.475 35 21.8517C35 17.7917 32.6083 14.2917 29.1667 12.6583ZM28.35 4.66667H17.7567L21.2567 1.16667H31.85L28.35 4.66667ZM15.9367 4.83C15.8317 4.935 15.7617 5.08667 15.7617 5.23833V9.32167H13.4283V5.48333L17.745 1.16667H19.6L15.9367 4.83ZM5.51833 1.16667H16.1117L12.6117 4.66667H2.01833L5.51833 1.16667ZM1.20166 26.81V5.83333H12.2733V9.91667C12.2733 10.2433 12.53 10.5 12.8567 10.5H16.3567C16.6833 10.5 16.94 10.2433 16.94 9.91667V5.83333H28V12.18C26.985 11.8417 25.9117 11.655 24.7917 11.655H23.9167V8.73833C23.9167 8.51667 23.8 8.31833 23.6017 8.225C23.4033 8.12 23.17 8.14333 22.995 8.27167L14.84 14.105C14.6883 14.21 14.595 14.3967 14.595 14.5833C14.595 14.77 14.6883 14.945 14.84 15.0617L22.995 20.895C23.17 21.0233 23.4033 21.035 23.6017 20.9417C23.8 20.8367 23.9167 20.6383 23.9167 20.4283V17.5233C25.4683 17.5933 26.8917 18.1883 28 19.145V26.845H1.20166V26.81ZM29.2017 29.7383C30.625 28.315 31.5 26.3433 31.5 24.185C31.5 19.845 27.965 16.3217 23.6367 16.3217H23.345C23.0183 16.3217 22.7617 16.5783 22.7617 16.905V19.2733L16.1933 14.5833L22.7617 9.89333V12.2617C22.7617 12.5883 23.0183 12.845 23.345 12.845H24.8033C29.785 12.845 33.8333 16.8933 33.8333 21.875C33.8333 25.235 31.9667 28.1983 29.2017 29.7383Z" fill="#2882FF"/>
<path d="M2.35667 24.4766H9.345V25.6432H2.35667V24.4766Z" fill="#2882FF"/>
<path d="M2.35667 22.1436H9.345V23.3102H2.35667V22.1436Z" fill="#2882FF"/>
</g>
<defs>
<clipPath id="clip0_289_1172">
<rect width="35" height="32.0833" fill="white"/>
</clipPath>
</defs>
</svg>
