<svg width="18" height="14" viewBox="0 0 18 14" fill="none" xmlns="http://www.w3.org/2000/svg">
<path id="Vector" d="M1.02622 0H16.9737C17.2464 0.00269813 17.5069 0.112688 17.699 0.306142C17.8911 0.499596 17.9992 0.760938 18 1.03355V11.9936C18.0015 12.2028 17.9391 12.4074 17.8211 12.58C17.7999 12.6354 17.7669 12.6854 17.7244 12.7266C17.6958 12.754 17.6631 12.7767 17.6276 12.7941C17.4426 12.9502 17.2084 13.0358 16.9664 13.036H1.02622C0.754881 13.0333 0.495407 12.9243 0.30353 12.7324C0.111652 12.5406 0.00267353 12.2811 0 12.0098V1.03355C0.000757843 0.760938 0.10889 0.499596 0.300972 0.306142C0.493055 0.112688 0.75362 0.00269813 1.02622 0ZM0.982243 11.5582L6.37432 5.95503L0.982243 1.3986V11.5582ZM7.1865 6.65433L1.42499 12.2341H16.5251L11.0202 6.65433L9.40754 8.00455C9.33648 8.06356 9.24702 8.09587 9.15465 8.09587C9.06228 8.09587 8.97282 8.06356 8.90176 8.00455L7.1865 6.65433ZM11.8192 5.94477L17.0177 11.6037V1.34875L11.8192 5.94477ZM1.48949 0.793125L9.13926 6.99299L16.4518 0.793125H1.48949Z" fill="#747474"/>
</svg>
