<svg width="26" height="25" viewBox="0 0 26 25" fill="none" xmlns="http://www.w3.org/2000/svg">
<g id="facebook-1-svgrepo-com 1" clip-path="url(#clip0_349_4069)">
<path id="Vector" d="M13 24.929C19.8644 24.929 25.429 19.3643 25.429 12.5C25.429 5.63566 19.8644 0.071022 13 0.071022C6.13569 0.071022 0.571045 5.63566 0.571045 12.5C0.571045 19.3643 6.13569 24.929 13 24.929Z" fill="url(#paint0_linear_349_4069)"/>
<path id="Vector_2" d="M17.6287 16.3011L18.1808 12.7931H14.727V10.5176C14.727 9.55762 15.2086 8.62136 16.7555 8.62136H18.3267V5.63476C18.3267 5.63476 16.9014 5.39773 15.5394 5.39773C12.6936 5.39773 10.8354 7.07825 10.8354 10.1193V12.7931H7.67334V16.3011H10.8354V24.782C11.4701 24.8793 12.1195 24.929 12.7811 24.929C13.4427 24.929 14.0922 24.8793 14.727 24.782V16.3011H17.6287Z" fill="white"/>
</g>
<defs>
<linearGradient id="paint0_linear_349_4069" x1="13" y1="0.071022" x2="13" y2="24.8553" gradientUnits="userSpaceOnUse">
<stop stop-color="#18ACFE"/>
<stop offset="1" stop-color="#0163E0"/>
</linearGradient>
<clipPath id="clip0_349_4069">
<rect width="25" height="25" fill="white" transform="translate(0.5)"/>
</clipPath>
</defs>
</svg>
