<svg width="35" height="35" viewBox="0 0 35 35" fill="none" xmlns="http://www.w3.org/2000/svg">
<path d="M32.5499 19.6149L31.6435 15.9894C31.8913 15.9368 32.0772 15.7169 32.0772 15.4535V14.869C32.0772 13.5998 31.0447 12.5673 29.7756 12.5673H25.6472V11.3617C25.6472 10.7372 25.1392 10.2291 24.5146 10.2291H16.8383L21.5031 8.36317C21.7842 8.25079 21.9208 7.93183 21.8084 7.6508C21.696 7.36984 21.3773 7.23306 21.096 7.34551L17.2765 8.87327C18.4404 8.12651 19.5919 7.30463 20.0303 6.72986C20.8838 5.61089 20.6676 4.00622 19.5487 3.15275C18.4297 2.29922 16.825 2.51544 15.9716 3.63441C15.348 4.45213 14.5252 6.74976 13.9927 8.36885C13.4602 6.74989 12.6374 4.45213 12.0138 3.63441C11.1604 2.51544 9.55568 2.29936 8.43671 3.15275C7.31773 4.00615 7.10165 5.61082 7.95505 6.72986C8.39344 7.3047 9.54488 8.12651 10.7088 8.87327L6.88933 7.34551C6.60816 7.23292 6.28934 7.36978 6.17695 7.6508C6.0645 7.93183 6.20122 8.25079 6.48225 8.36317L11.1471 10.2291H3.47074C2.84621 10.2291 2.33816 10.7372 2.33816 11.3617V21.2991C2.33816 21.6017 2.58351 21.8471 2.8862 21.8471C3.18883 21.8471 3.43424 21.6018 3.43424 21.2991V11.3617C3.43424 11.3415 3.45058 11.3252 3.47074 11.3252H24.5146C24.5347 11.3252 24.5511 11.3415 24.5511 11.3617V21.2992C24.5511 21.6019 24.7964 21.8473 25.0991 21.8473C25.4017 21.8473 25.6471 21.6019 25.6471 21.2992V20.678H32.1116C32.1122 20.678 32.1127 20.6781 32.1133 20.6781C32.1139 20.6781 32.1145 20.678 32.1151 20.678C32.9105 20.6787 33.5859 21.2008 33.8178 21.9202H32.1137C31.8111 21.9202 31.5657 22.1655 31.5657 22.4682V23.6373C31.5657 24.5842 32.336 25.3544 33.2828 25.3544H33.9039V27.7657H32.471C32.0003 26.4066 30.7082 25.4275 29.191 25.4275C27.6737 25.4275 26.3816 26.4065 25.9109 27.7657H25.6471V23.6373C25.6471 23.3346 25.4017 23.0892 25.099 23.0892C24.7964 23.0892 24.551 23.3346 24.551 23.6373V27.7656H13.1809C12.7101 26.4065 11.4181 25.4274 9.90083 25.4274C8.38359 25.4274 7.09146 26.4064 6.62081 27.7656H3.47074C3.45058 27.7656 3.43424 27.7493 3.43424 27.7291V26.5235H5.80897C6.1116 26.5235 6.35701 26.2781 6.35701 25.9754C6.35701 25.6727 6.11167 25.4274 5.80897 25.4274H0.548037C0.24541 25.4274 0 25.6727 0 25.9754C0 26.2781 0.245342 26.5235 0.548037 26.5235H2.33823V27.7291C2.33823 28.3536 2.84628 28.8617 3.47081 28.8617H6.43105C6.43091 28.8739 6.43009 28.886 6.43009 28.8982C6.43009 30.8119 7.98711 32.3689 9.90083 32.3689C11.8146 32.3689 13.3716 30.8119 13.3716 28.8982C13.3716 28.8859 13.3708 28.8739 13.3706 28.8617H25.7211C25.721 28.8739 25.7201 28.886 25.7201 28.8982C25.7201 30.8119 27.2772 32.3689 29.1909 32.3689C31.1046 32.3689 32.6616 30.8119 32.6616 28.8982C32.6616 28.8859 32.6608 28.8739 32.6607 28.8617H34.4519C34.7545 28.8617 34.9999 28.6163 34.9999 28.3137V22.4682C35 21.0248 33.9352 19.8257 32.5499 19.6149ZM11.8193 8.27547C9.65761 6.93214 9.0164 6.3141 8.82656 6.06514C8.33964 5.42673 8.46296 4.51119 9.10144 4.02427C9.36462 3.82356 9.67483 3.72656 9.98279 3.72656C10.4218 3.72656 10.8562 3.92385 11.1424 4.29914C11.6725 4.99422 12.5027 7.33368 13.0508 9.01949C12.6809 8.8017 12.2557 8.54679 11.8193 8.27547ZM14.9347 9.01942C15.4828 7.33368 16.313 4.99429 16.8431 4.29907C17.33 3.66066 18.2455 3.53741 18.8839 4.02427C19.5224 4.51119 19.6457 5.42673 19.1588 6.06514C18.969 6.31403 18.3278 6.93214 16.1662 8.2754C15.7298 8.54665 15.3046 8.80163 14.9347 9.01942ZM25.6472 13.6633H29.7756C30.4404 13.6633 30.9812 14.2041 30.9812 14.8689V14.9054H25.6472V13.6633ZM25.6472 19.5819V16.0015H30.5168L31.4119 19.5819H25.6472ZM9.90083 31.2729C8.59141 31.2729 7.52609 30.2076 7.52609 28.8982C7.52609 27.5888 8.59141 26.5235 9.90083 26.5235C11.2103 26.5235 12.2756 27.5888 12.2756 28.8982C12.2756 30.2076 11.2103 31.2729 9.90083 31.2729ZM29.191 31.2729C27.8816 31.2729 26.8163 30.2076 26.8163 28.8982C26.8163 27.5888 27.8816 26.5235 29.191 26.5235C30.5005 26.5235 31.5658 27.5888 31.5658 28.8982C31.5658 30.2076 30.5005 31.2729 29.191 31.2729ZM33.904 24.2583H33.2829C32.9404 24.2583 32.6618 23.9797 32.6618 23.6372V23.0161H33.9039V24.2583H33.904Z" fill="#2882FF"/>
<path d="M9.90083 27.7656C9.2763 27.7656 8.76825 28.2737 8.76825 28.8982C8.76825 29.5227 9.2763 30.0308 9.90083 30.0308C10.5254 30.0308 11.0334 29.5227 11.0334 28.8982C11.0334 28.2737 10.5254 27.7656 9.90083 27.7656Z" fill="#2882FF"/>
<path d="M29.191 27.7656C28.5665 27.7656 28.0584 28.2737 28.0584 28.8982C28.0584 29.5227 28.5665 30.0308 29.191 30.0308C29.8156 30.0308 30.3236 29.5227 30.3236 28.8982C30.3236 28.2737 29.8156 27.7656 29.191 27.7656Z" fill="#2882FF"/>
<path d="M22.7609 25.4272H14.5772C14.2746 25.4272 14.0292 25.6726 14.0292 25.9753C14.0292 26.278 14.2745 26.5233 14.5772 26.5233H22.7609C23.0635 26.5233 23.309 26.278 23.309 25.9753C23.309 25.6726 23.0636 25.4272 22.7609 25.4272Z" fill="#2882FF"/>
<path d="M8.73173 23.0894H1.7171C1.41448 23.0894 1.16907 23.3347 1.16907 23.6374C1.16907 23.9401 1.41441 24.1854 1.7171 24.1854H8.73173C9.03436 24.1854 9.27977 23.9401 9.27977 23.6374C9.27977 23.3347 9.03436 23.0894 8.73173 23.0894Z" fill="#2882FF"/>
<path d="M8.73176 14.9053H6.39353C6.0909 14.9053 5.84549 15.1506 5.84549 15.4533V20.1297C5.84549 20.4323 6.09083 20.6777 6.39353 20.6777C6.69622 20.6777 6.94156 20.4324 6.94156 20.1297V18.3395H8.14722C8.44984 18.3395 8.69525 18.0942 8.69525 17.7915C8.69525 17.4888 8.44991 17.2434 8.14722 17.2434H6.94156V16.0013H8.73176C9.03439 16.0013 9.2798 15.756 9.2798 15.4533C9.27973 15.1507 9.03439 14.9053 8.73176 14.9053Z" fill="#2882FF"/>
<path d="M13.0445 18.5965C13.5929 18.2372 13.9562 17.6178 13.9562 16.9147C13.9562 15.8067 13.0548 14.9053 11.9468 14.9053H10.4854C10.1828 14.9053 9.93735 15.1506 9.93735 15.4533V20.1297C9.93735 20.4323 10.1827 20.6777 10.4854 20.6777C10.7881 20.6777 11.0334 20.4324 11.0334 20.1297V18.9241H11.9457L12.9521 20.4336C13.0577 20.592 13.2314 20.6777 13.4086 20.6777C13.5131 20.6777 13.6186 20.6479 13.712 20.5856C13.9639 20.4178 14.0319 20.0775 13.864 19.8257L13.0445 18.5965ZM11.9468 17.828H11.0334V16.0013H11.9468C12.4504 16.0013 12.8601 16.411 12.8601 16.9147C12.8601 17.4184 12.4504 17.828 11.9468 17.828Z" fill="#2882FF"/>
<path d="M17.5 19.5817H15.7098V18.3377C15.7219 18.3386 15.734 18.3396 15.7463 18.3396H16.9154C17.218 18.3396 17.4634 18.0942 17.4634 17.7915C17.4634 17.4888 17.2181 17.2435 16.9154 17.2435H15.7463C15.7339 17.2435 15.7219 17.2445 15.7098 17.2454V16.0013H17.5C17.8026 16.0013 18.048 15.756 18.048 15.4533C18.048 15.1507 17.8027 14.9053 17.5 14.9053H15.1618C14.8591 14.9053 14.6137 15.1506 14.6137 15.4533V20.1297C14.6137 20.4323 14.8591 20.6777 15.1618 20.6777H17.5C17.8026 20.6777 18.048 20.4324 18.048 20.1297C18.048 19.827 17.8026 19.5817 17.5 19.5817Z" fill="#2882FF"/>
<path d="M21.5919 19.5817H19.8017V18.3396H20.4228C20.7254 18.3396 20.9708 18.0942 20.9708 17.7915C20.9708 17.4888 20.7255 17.2435 20.4228 17.2435H19.8017V16.0013H21.5919C21.8945 16.0013 22.1399 15.756 22.1399 15.4533C22.1399 15.1507 21.8946 14.9053 21.5919 14.9053H19.2536C18.951 14.9053 18.7056 15.1506 18.7056 15.4533V20.1297C18.7056 20.4323 18.9509 20.6777 19.2536 20.6777H21.5919C21.8945 20.6777 22.1399 20.4324 22.1399 20.1297C22.1399 19.827 21.8945 19.5817 21.5919 19.5817Z" fill="#2882FF"/>
</svg>
