<svg width="25" height="25" viewBox="0 0 25 25" fill="none" xmlns="http://www.w3.org/2000/svg">
<g id="google-svgrepo-com 1" clip-path="url(#clip0_351_4079)">
<path id="Vector" d="M24.2188 12.7734C24.2188 11.965 24.1525 11.1532 24.0133 10.3584H12.7361V14.9355H19.1933C19.0601 15.6679 18.7796 16.3658 18.3689 16.9867C17.9581 17.6076 17.4256 18.1387 16.8037 18.5479V21.52H20.6573C22.9195 19.448 24.2188 16.391 24.2188 12.7734Z" fill="#4285F4"/>
<path id="Vector_2" d="M12.7377 24.3886C15.9612 24.3886 18.6803 23.3356 20.6606 21.5184L16.8087 18.5479C15.737 19.2731 14.3528 19.6841 12.7411 19.6841C9.62287 19.6841 6.97851 17.5917 6.02912 14.7792H2.05493V17.8414C3.05629 19.8136 4.5848 21.4696 6.47064 22.6253C8.35649 23.7811 10.5258 24.3915 12.7377 24.3886Z" fill="#34A853"/>
<path id="Vector_3" d="M6.02414 14.7792C5.52331 13.3033 5.52331 11.7035 6.02414 10.2276V7.16543H2.05335C1.21715 8.82057 0.781494 10.649 0.781494 12.5034C0.781494 14.3578 1.21715 16.1862 2.05335 17.8414L6.02414 14.7792Z" fill="#FBBC04"/>
<path id="Vector_4" d="M12.7377 5.31589C14.4405 5.28828 16.0865 5.92839 17.3233 7.09918L20.737 3.70414C18.5674 1.68318 15.7025 0.576118 12.7377 0.613103C10.5252 0.6103 8.35535 1.22125 6.46938 2.37802C4.58341 3.53479 3.05528 5.19202 2.05493 7.16541L6.02232 10.2242C6.96662 7.40828 9.61607 5.31589 12.7343 5.31589H12.7377Z" fill="#EA4335"/>
</g>
<defs>
<clipPath id="clip0_351_4079">
<rect width="25" height="25" fill="white"/>
</clipPath>
</defs>
</svg>
