<svg width="37" height="36" viewBox="0 0 37 36" fill="none" xmlns="http://www.w3.org/2000/svg">
<path d="M32.9441 31.8873L32.9417 31.8957L32.9397 31.9042C32.4727 33.8341 30.6574 35.2144 28.5288 35.2144H11.5249V14.8226L14.6636 4.04998L14.6722 4.02041L14.6771 3.99C14.997 2.01353 17.1758 0.629419 19.4452 1.45894C20.7469 1.93614 21.5498 3.24051 21.5498 4.61357V13.0013C21.5498 14.2795 22.6344 15.2145 23.8873 15.2145H31.7223C34.6583 15.2145 36.7714 17.8088 36.1352 20.4598L32.9441 31.8873ZM0.5 32.2511V18.2513C0.5 16.6097 1.90435 15.2145 3.67498 15.2145H6.84993V35.2144H3.67498C1.89036 35.2144 0.5 33.8793 0.5 32.2511Z" fill="#ADDFFF" stroke="#323949"/>
</svg>
