<svg width="23" height="30" viewBox="0 0 23 30" fill="none" xmlns="http://www.w3.org/2000/svg">
<g clip-path="url(#clip0_22_64)">
<path d="M22.2222 22.7778H0L2.77778 20V11.6667C2.77977 9.69877 3.47812 7.79508 4.74915 6.29273C6.02017 4.79038 7.78186 3.7863 9.72222 3.45832V1.94443C9.72222 1.57607 9.86855 1.22281 10.129 0.962338C10.3895 0.701871 10.7428 0.555542 11.1111 0.555542C11.4795 0.555542 11.8327 0.701871 12.0932 0.962338C12.3537 1.22281 12.5 1.57607 12.5 1.94443V3.45832C13.1213 3.57328 13.7271 3.7597 14.3056 4.01388C13.959 4.85689 13.8255 5.77236 13.9171 6.67923C14.0087 7.58611 14.3224 8.45642 14.8305 9.21313C15.3387 9.96984 16.0255 10.5896 16.8303 11.0176C17.6351 11.4455 18.533 11.6685 19.4444 11.6667V20L22.2222 22.7778ZM11.1111 28.3333C11.8478 28.3333 12.5544 28.0407 13.0753 27.5197C13.5962 26.9988 13.8889 26.2923 13.8889 25.5555H8.33333C8.33333 26.2923 8.62599 26.9988 9.14693 27.5197C9.66786 28.0407 10.3744 28.3333 11.1111 28.3333ZM19.4444 3.33332C18.8951 3.33332 18.358 3.49623 17.9012 3.80146C17.4444 4.10669 17.0884 4.54052 16.8781 5.04809C16.6679 5.55566 16.6129 6.11418 16.72 6.65302C16.8272 7.19185 17.0918 7.6868 17.4803 8.07528C17.8687 8.46376 18.3637 8.72832 18.9025 8.8355C19.4414 8.94268 19.9999 8.88767 20.5075 8.67743C21.015 8.46719 21.4489 8.11115 21.7541 7.65435C22.0593 7.19755 22.2222 6.66049 22.2222 6.1111C22.2222 5.37439 21.9296 4.66785 21.4086 4.14691C20.8877 3.62598 20.1812 3.33332 19.4444 3.33332Z" fill="white"/>
</g>
<defs>
<clipPath id="clip0_22_64">
<rect width="22.2222" height="30" fill="white"/>
</clipPath>
</defs>
</svg>
