<svg width="15" height="15" viewBox="0 0 15 15" fill="none" xmlns="http://www.w3.org/2000/svg">
<path id="Vector" d="M4.14485 11.3946C3.91832 11.1705 3.55303 11.1725 3.32897 11.399C3.10492 11.6256 3.10693 11.9909 3.33346 12.2149L4.14485 11.3946ZM8.35852 6.64145C7.98306 6.26591 7.98306 5.65712 8.35852 5.28162L7.54267 4.46573C6.71652 5.29183 6.71652 6.63121 7.54267 7.45729L8.35852 6.64145ZM9.71836 6.64145C9.34282 7.01691 8.73406 7.01691 8.35852 6.64145L7.54267 7.45729C8.36875 8.28344 9.70813 8.28344 10.5342 7.45729L9.71836 6.64145ZM9.71836 5.28162C10.0938 5.65712 10.0938 6.26591 9.71836 6.64145L10.5342 7.45729C11.3604 6.63121 11.3604 5.29183 10.5342 4.46573L9.71836 5.28162ZM10.5342 4.46573C9.70813 3.63961 8.36875 3.63961 7.54267 4.46573L8.35852 5.28162C8.73406 4.90611 9.34282 4.90611 9.71836 5.28162L10.5342 4.46573ZM12.459 2.54095C14.3085 4.39042 14.3085 7.38898 12.459 9.23851L13.2749 10.0544C15.575 7.75429 15.575 4.02514 13.2749 1.72506L12.459 2.54095ZM13.2749 1.72506C10.9748 -0.57502 7.24568 -0.57502 4.94559 1.72506L5.76148 2.54095C7.61098 0.691477 10.6095 0.691477 12.459 2.54095L13.2749 1.72506ZM3.35788 7.60613L0.502433 10.4616L1.31832 11.2775L4.17377 8.42206L3.35788 7.60613ZM4.53837 14.4975L5.49252 13.5433L4.67663 12.7275L3.72248 13.6817L4.53837 14.4975ZM5.49252 13.5433L7.39406 11.6419L6.57814 10.826L4.67663 12.7275L5.49252 13.5433ZM0.0105031 11.864L0.189018 13.4706L1.3358 13.3432L1.15728 11.7366L0.0105031 11.864ZM1.52938 14.811L3.13598 14.9895L3.26339 13.8427L1.6568 13.6642L1.52938 14.811ZM0.572117 14.2677L0.732278 14.4278L1.54818 13.612L1.38801 13.4518L0.572117 14.2677ZM1.6568 13.6642C1.61571 13.6596 1.57741 13.6412 1.54818 13.612L0.732278 14.4278C0.946777 14.6423 1.22789 14.7774 1.52938 14.811L1.6568 13.6642ZM0.189018 13.4706C0.22251 13.772 0.357618 14.0532 0.572117 14.2677L1.38801 13.4518C1.35878 13.4226 1.34037 13.3843 1.3358 13.3432L0.189018 13.4706ZM3.72248 13.6817C3.60185 13.8023 3.43294 13.8615 3.26339 13.8427L3.13598 14.9895C3.65389 15.047 4.16989 14.866 4.53837 14.4975L3.72248 13.6817ZM0.502433 10.4616C0.133957 10.83 -0.0470429 11.346 0.0105031 11.864L1.15728 11.7366C1.13845 11.567 1.1977 11.3981 1.31832 11.2775L0.502433 10.4616ZM4.52364 7.07275C4.12041 5.50253 4.53393 3.7685 5.76148 2.54095L4.94559 1.72506C3.41785 3.2528 2.90557 5.41076 3.40606 7.35975L4.52364 7.07275ZM12.459 9.23851C11.2314 10.4661 9.49744 10.8795 7.92721 10.4764L7.64021 11.5939C9.58921 12.0944 11.7472 11.5821 13.2749 10.0544L12.459 9.23851ZM7.39406 11.6419C7.43698 11.599 7.5249 11.5643 7.64021 11.5939L7.92721 10.4764C7.47498 10.3602 6.9496 10.4545 6.57814 10.826L7.39406 11.6419ZM4.17377 8.42206C4.54504 8.05075 4.63985 7.52529 4.52364 7.07275L3.40606 7.35975C3.43561 7.47475 3.40097 7.56306 3.35788 7.60613L4.17377 8.42206ZM5.49026 12.7253L4.14485 11.3946L3.33346 12.2149L4.67887 13.5456L5.49026 12.7253Z" fill="#747474"/>
</svg>
