<svg width="16" height="16" viewBox="0 0 16 16" fill="none" xmlns="http://www.w3.org/2000/svg">
<g clip-path="url(#clip0_125_4024)">
<path d="M10.9773 10.2898L11.351 9.92114L10.4832 9.05531L10.1096 9.42396L10.9773 10.2898ZM12.606 9.76673L14.1735 10.6121L14.7612 9.53946L13.1938 8.69407L12.606 9.76673ZM14.4752 12.2923L13.3097 13.4421L14.1774 14.3079L15.3429 13.1582L14.4752 12.2923ZM12.5995 13.8123C11.4099 13.9222 8.33224 13.8242 5.00003 10.5371L4.13229 11.4029C7.76859 14.99 11.2295 15.1652 12.7137 15.0279L12.5995 13.8123ZM5.00003 10.5371C1.82374 7.40376 1.2976 4.76839 1.2321 3.62508L0.00340386 3.69436C0.0858267 5.13333 0.737324 8.05388 4.13229 11.4029L5.00003 10.5371ZM6.12842 5.50647L6.36373 5.27433L5.49601 4.40853L5.2607 4.64066L6.12842 5.50647ZM6.55104 2.31536L5.51648 0.944303L4.53129 1.67602L5.56583 3.04709L6.55104 2.31536ZM2.03692 0.645884L0.749139 1.91625L1.61688 2.78206L2.90467 1.51169L2.03692 0.645884ZM5.69456 5.07357C5.2607 4.64066 5.26011 4.64124 5.25952 4.64183C5.25932 4.64202 5.25873 4.64262 5.25833 4.64301C5.25752 4.64382 5.2567 4.64463 5.25588 4.64547C5.25421 4.64716 5.25249 4.64891 5.25071 4.65073C5.24716 4.65439 5.2434 4.65834 5.23945 4.66261C5.23153 4.67113 5.22284 4.68088 5.21354 4.69189C5.19494 4.71391 5.17386 4.74102 5.15171 4.77346C5.1073 4.83849 5.05891 4.92447 5.01784 5.0326C4.93405 5.25323 4.88913 5.54407 4.94545 5.90421C5.05559 6.60853 5.5445 7.53888 6.79693 8.77433L7.66464 7.9085C6.49262 6.75232 6.21342 6.04873 6.16157 5.71703C6.13687 5.55918 6.16247 5.48148 6.16952 5.46309C6.17379 5.45171 6.17584 5.45054 6.17059 5.45832C6.16797 5.46212 6.16362 5.46807 6.15681 5.47609C6.15344 5.4801 6.14942 5.48464 6.14475 5.4897C6.14237 5.49223 6.13991 5.4949 6.13712 5.49769C6.1358 5.49909 6.13441 5.50051 6.13293 5.50198C6.13219 5.50271 6.13145 5.50345 6.13072 5.5042C6.13039 5.50457 6.12981 5.50514 6.12957 5.50533C6.12899 5.5059 6.12842 5.50647 5.69456 5.07357ZM6.79693 8.77433C8.04976 10.0102 8.99189 10.4912 9.70297 10.5994C10.0664 10.6547 10.3593 10.6106 10.5816 10.5284C10.6906 10.4882 10.7774 10.4407 10.843 10.3971C10.8758 10.3753 10.9032 10.3545 10.9254 10.3362C10.9366 10.3271 10.9465 10.3185 10.9551 10.3107C10.9594 10.3068 10.9634 10.3031 10.9671 10.2996C10.969 10.2978 10.9707 10.2961 10.9725 10.2945C10.9733 10.2937 10.9741 10.2929 10.9749 10.2921C10.9753 10.2917 10.976 10.2911 10.9762 10.2909C10.9767 10.2904 10.9773 10.2898 10.5434 9.85683C10.1096 9.42396 10.1102 9.42339 10.1107 9.42282C10.1109 9.42266 10.1115 9.42209 10.1119 9.42168C10.1126 9.42095 10.1134 9.42022 10.1141 9.41949C10.1157 9.4181 10.1171 9.41672 10.1185 9.41533C10.1213 9.41265 10.124 9.4102 10.1266 9.40784C10.1317 9.40329 10.1363 9.3993 10.1404 9.39604C10.1484 9.38937 10.1544 9.38513 10.1581 9.38261C10.1657 9.37756 10.1642 9.37984 10.152 9.38432C10.1319 9.39173 10.0514 9.41721 9.88963 9.39254C9.55053 9.34102 8.83633 9.06427 7.66464 7.9085L6.79693 8.77433ZM5.51648 0.944303C4.68019 -0.163997 3.03569 -0.339368 2.03692 0.645884L2.90467 1.51169C3.34089 1.08137 4.11562 1.12517 4.53129 1.67602L5.51648 0.944303ZM1.2321 3.62508C1.21596 3.34336 1.3462 3.04907 1.61688 2.78206L0.749139 1.91625C0.308293 2.35113 -0.0382834 2.96674 0.00340386 3.69436L1.2321 3.62508ZM13.3097 13.4421C13.0842 13.6645 12.8425 13.7898 12.5995 13.8123L12.7137 15.0279C13.3164 14.9722 13.8102 14.6701 14.1774 14.3079L13.3097 13.4421ZM6.36373 5.27433C7.17146 4.47752 7.23152 3.21716 6.55104 2.31536L5.56583 3.04709C5.89689 3.4858 5.84766 4.06164 5.49601 4.40853L6.36373 5.27433ZM14.1735 10.6121C14.8444 10.974 14.949 11.8249 14.4752 12.2923L15.3429 13.1582C16.4426 12.0734 16.1035 10.2633 14.7612 9.53946L14.1735 10.6121ZM11.351 9.92114C11.6661 9.61036 12.1732 9.53336 12.606 9.76673L13.1938 8.69407C12.3047 8.21456 11.2014 8.34699 10.4832 9.05531L11.351 9.92114Z" fill="white"/>
</g>
<defs>
<clipPath id="clip0_125_4024">
<rect width="16" height="15.0588" fill="white"/>
</clipPath>
</defs>
</svg>
