<svg width="19" height="16" viewBox="0 0 19 16" fill="none" xmlns="http://www.w3.org/2000/svg">
<path d="M0.864 14.384C1.71733 13.4027 2.42133 12.3147 2.976 11.12C3.57333 9.88267 3.936 8.624 4.064 7.344C3.85067 7.42933 3.552 7.472 3.168 7.472C2.31467 7.472 1.568 7.17333 0.928 6.576C0.330667 5.97866 0.0320001 5.232 0.0320001 4.336C0.0320001 3.26933 0.352 2.37333 0.992 1.648C1.67467 0.922665 2.57067 0.559998 3.68 0.559998C5.088 0.559998 6.13333 1.02933 6.816 1.968C7.54133 2.864 7.904 3.952 7.904 5.232C7.904 6.98133 7.41333 8.90133 6.432 10.992C5.49333 13.04 4.34133 14.704 2.976 15.984L0.864 14.384ZM11.296 14.384C12.1493 13.4027 12.8533 12.3147 13.408 11.12C14.0053 9.88267 14.368 8.624 14.496 7.344C14.2827 7.42933 13.984 7.472 13.6 7.472C12.7467 7.472 12 7.17333 11.36 6.576C10.7627 5.97866 10.464 5.232 10.464 4.336C10.464 3.26933 10.784 2.37333 11.424 1.648C12.1067 0.922665 13.0027 0.559998 14.112 0.559998C15.52 0.559998 16.5653 1.02933 17.248 1.968C17.9733 2.864 18.336 3.952 18.336 5.232C18.336 6.98133 17.8453 8.90133 16.864 10.992C15.9253 13.04 14.7733 14.704 13.408 15.984L11.296 14.384Z" fill="#C4C4C4"/>
</svg>
