<svg width="108" height="16" viewBox="0 0 108 16" fill="none" xmlns="http://www.w3.org/2000/svg">
<path d="M5.72254 2.72671C6.73585 0.908905 7.24249 0 8.00001 0C8.75753 0 9.26418 0.908897 10.2775 2.7267L10.5396 3.19699C10.8276 3.71355 10.9715 3.97184 11.1961 4.14225C11.4206 4.31267 11.7001 4.37593 12.2593 4.50245L12.7684 4.61763C14.7361 5.06286 15.72 5.28546 15.9541 6.03819C16.1882 6.79089 15.5175 7.57529 14.1759 9.14393L13.8289 9.54977C13.4477 9.99553 13.2571 10.2184 13.1713 10.4942C13.0856 10.7699 13.1144 11.0673 13.172 11.6621L13.2245 12.2035C13.4273 14.2965 13.5287 15.343 12.9159 15.8082C12.3031 16.2734 11.3819 15.8492 9.53946 15.001L9.06281 14.7815C8.53929 14.5404 8.27753 14.4199 8.00001 14.4199C7.72249 14.4199 7.46073 14.5404 6.93721 14.7815L6.46057 15.001C4.61815 15.8492 3.69695 16.2734 3.08413 15.8082C2.4713 15.343 2.57271 14.2965 2.77553 12.2035L2.82799 11.6621C2.88563 11.0673 2.91445 10.7699 2.82869 10.4942C2.74295 10.2184 2.55235 9.99553 2.17114 9.54977L1.82408 9.14393C0.482602 7.57529 -0.188143 6.79089 0.0459376 6.03819C0.280018 5.28546 1.26389 5.06286 3.23164 4.61763L3.74072 4.50245C4.29989 4.37593 4.57947 4.31267 4.80396 4.14225C5.02845 3.97184 5.17243 3.71356 5.46039 3.19699L5.72254 2.72671Z" fill="#FF5869"/>
<path d="M28.7225 2.72671C29.7359 0.908905 30.2425 0 31 0C31.7575 0 32.2642 0.908897 33.2775 2.7267L33.5396 3.19699C33.8276 3.71355 33.9715 3.97184 34.1961 4.14225C34.4206 4.31267 34.7001 4.37593 35.2593 4.50245L35.7684 4.61763C37.7361 5.06286 38.72 5.28546 38.9541 6.03819C39.1882 6.79089 38.5175 7.57529 37.1759 9.14393L36.8289 9.54977C36.4477 9.99553 36.2571 10.2184 36.1713 10.4942C36.0856 10.7699 36.1144 11.0673 36.172 11.6621L36.2245 12.2035C36.4273 14.2965 36.5287 15.343 35.9159 15.8082C35.3031 16.2734 34.3819 15.8492 32.5395 15.001L32.0628 14.7815C31.5393 14.5404 31.2775 14.4199 31 14.4199C30.7225 14.4199 30.4607 14.5404 29.9372 14.7815L29.4606 15.001C27.6182 15.8492 26.697 16.2734 26.0841 15.8082C25.4713 15.343 25.5727 14.2965 25.7755 12.2035L25.828 11.6621C25.8856 11.0673 25.9144 10.7699 25.8287 10.4942C25.7429 10.2184 25.5523 9.99553 25.1711 9.54977L24.8241 9.14393C23.4826 7.57529 22.8119 6.79089 23.0459 6.03819C23.28 5.28546 24.2639 5.06286 26.2316 4.61763L26.7407 4.50245C27.2999 4.37593 27.5795 4.31267 27.804 4.14225C28.0284 3.97184 28.1724 3.71356 28.4604 3.19699L28.7225 2.72671Z" fill="#FF5869"/>
<path d="M51.7225 2.72671C52.7359 0.908905 53.2425 0 54 0C54.7575 0 55.2642 0.908897 56.2775 2.7267L56.5396 3.19699C56.8276 3.71355 56.9715 3.97184 57.1961 4.14225C57.4206 4.31267 57.7001 4.37593 58.2593 4.50245L58.7684 4.61763C60.7361 5.06285 61.72 5.28546 61.9541 6.03819C62.1882 6.79089 61.5175 7.57529 60.1759 9.14393L59.8289 9.54977C59.4477 9.99553 59.2571 10.2184 59.1713 10.4942C59.0856 10.7699 59.1144 11.0673 59.172 11.6621L59.2245 12.2035C59.4273 14.2965 59.5287 15.343 58.9159 15.8082C58.3031 16.2734 57.3819 15.8492 55.5395 15.001L55.0628 14.7815C54.5393 14.5404 54.2775 14.4199 54 14.4199C53.7225 14.4199 53.4607 14.5404 52.9372 14.7815L52.4606 15.001C50.6182 15.8492 49.697 16.2734 49.0841 15.8082C48.4713 15.343 48.5727 14.2965 48.7755 12.2035L48.828 11.6621C48.8856 11.0673 48.9144 10.7699 48.8287 10.4942C48.7429 10.2184 48.5523 9.99553 48.1711 9.54977L47.8241 9.14393C46.4826 7.57529 45.8119 6.79089 46.0459 6.03819C46.28 5.28546 47.2639 5.06285 49.2316 4.61763L49.7407 4.50245C50.2999 4.37593 50.5795 4.31267 50.804 4.14225C51.0284 3.97184 51.1724 3.71356 51.4604 3.19699L51.7225 2.72671Z" fill="#FF5869"/>
<path d="M74.7225 2.72671C75.7359 0.908905 76.2425 0 77 0C77.7575 0 78.2642 0.908897 79.2775 2.7267L79.5396 3.19699C79.8276 3.71355 79.9715 3.97184 80.1961 4.14225C80.4206 4.31267 80.7001 4.37593 81.2593 4.50245L81.7684 4.61763C83.7361 5.06286 84.72 5.28546 84.9541 6.03819C85.1882 6.79089 84.5175 7.57529 83.1759 9.14393L82.8289 9.54977C82.4477 9.99553 82.2571 10.2184 82.1713 10.4942C82.0856 10.7699 82.1144 11.0673 82.172 11.6621L82.2245 12.2035C82.4273 14.2965 82.5287 15.343 81.9159 15.8082C81.3031 16.2734 80.3819 15.8492 78.5395 15.001L78.0628 14.7815C77.5393 14.5404 77.2775 14.4199 77 14.4199C76.7225 14.4199 76.4607 14.5404 75.9372 14.7815L75.4606 15.001C73.6182 15.8492 72.697 16.2734 72.0841 15.8082C71.4713 15.343 71.5727 14.2965 71.7755 12.2035L71.828 11.6621C71.8856 11.0673 71.9144 10.7699 71.8287 10.4942C71.7429 10.2184 71.5523 9.99553 71.1711 9.54977L70.8241 9.14393C69.4826 7.57529 68.8119 6.79089 69.0459 6.03819C69.28 5.28546 70.2639 5.06286 72.2316 4.61763L72.7407 4.50245C73.2999 4.37593 73.5795 4.31267 73.804 4.14225C74.0284 3.97184 74.1724 3.71356 74.4604 3.19699L74.7225 2.72671Z" fill="#FF5869"/>
<path d="M97.7225 2.72671C98.7359 0.908905 99.2425 0 100 0C100.758 0 101.264 0.908897 102.277 2.7267L102.54 3.19699C102.828 3.71355 102.972 3.97184 103.196 4.14225C103.421 4.31267 103.7 4.37593 104.259 4.50245L104.768 4.61763C106.736 5.06286 107.72 5.28546 107.954 6.03819C108.188 6.79089 107.517 7.57529 106.176 9.14393L105.829 9.54977C105.448 9.99553 105.257 10.2184 105.171 10.4942C105.086 10.7699 105.114 11.0673 105.172 11.6621L105.225 12.2035C105.427 14.2965 105.529 15.343 104.916 15.8082C104.303 16.2734 103.382 15.8492 101.539 15.001L101.063 14.7815C100.539 14.5404 100.278 14.4199 100 14.4199C99.7225 14.4199 99.4607 14.5404 98.9372 14.7815L98.4606 15.001C96.6182 15.8492 95.697 16.2734 95.0841 15.8082C94.4713 15.343 94.5727 14.2965 94.7755 12.2035L94.828 11.6621C94.8856 11.0673 94.9144 10.7699 94.8287 10.4942C94.7429 10.2184 94.5523 9.99553 94.1711 9.54977L93.8241 9.14393C92.4826 7.57529 91.8119 6.79089 92.0459 6.03819C92.28 5.28546 93.2639 5.06286 95.2316 4.61763L95.7407 4.50245C96.2999 4.37593 96.5795 4.31267 96.804 4.14225C97.0284 3.97184 97.1724 3.71356 97.4604 3.19699L97.7225 2.72671Z" fill="#FF5869"/>
</svg>
