<svg width="20" height="20" viewBox="0 0 20 20" fill="none" xmlns="http://www.w3.org/2000/svg">
<path d="M18.7561 12.0647L3.50565 19.2946C3.13057 19.4778 2.7075 19.5389 2.29592 19.4692C1.88433 19.3995 1.50492 19.2027 1.21101 18.9062C0.915931 18.6178 0.717449 18.245 0.642856 17.8392C0.568262 17.4333 0.621218 17.0144 0.794446 16.6398L3.19499 11.2457L5.36959 11.2457H8.88568C9.15158 11.2457 9.40659 11.1401 9.59461 10.952C9.78263 10.764 9.88826 10.509 9.88826 10.2431C9.88826 9.9772 9.78263 9.72219 9.59461 9.53417C9.40659 9.34615 9.15158 9.24052 8.88568 9.24052L5.36959 9.24052L3.15969 9.21934L0.773265 3.82518C0.570264 3.44716 0.494421 3.0138 0.556971 2.5893C0.61952 2.1648 0.817134 1.77173 1.12054 1.46832C1.42395 1.16492 1.81702 0.967301 2.24152 0.904752C2.66602 0.842203 3.09938 0.918046 3.4774 1.12105L18.7561 8.37915C19.1197 8.53097 19.4302 8.78694 19.6486 9.11485C19.8671 9.44275 19.9836 9.82793 19.9836 10.2219C19.9836 10.6159 19.8671 11.0011 19.6487 11.329C19.4302 11.6569 19.1197 11.9129 18.7561 12.0647Z" fill="#323949"/>
</svg>
