<svg width="20" height="20" viewBox="0 0 20 20" fill="none" xmlns="http://www.w3.org/2000/svg">
<path d="M18.3334 18.3333H1.66669" stroke="#323949" stroke-linecap="round"/>
<path opacity="0.5" d="M16.6667 18.3333V9.16666" stroke="#323949" stroke-linecap="round"/>
<path opacity="0.5" d="M3.33331 18.3333V9.16666" stroke="#323949" stroke-linecap="round"/>
<path d="M13.7732 1.66666H6.2268C5.22445 1.66666 4.72327 1.66666 4.32052 1.91557C3.91776 2.16449 3.69363 2.61275 3.24537 3.50927L2.07569 6.46606C1.80545 7.1492 1.56901 7.95436 2.02391 8.53124C2.32909 8.91824 2.80216 9.16666 3.33327 9.16666C4.25375 9.16666 4.99994 8.42049 4.99994 7.49999C4.99994 8.42049 5.74613 9.16666 6.66661 9.16666C7.58708 9.16666 8.33327 8.42049 8.33327 7.49999C8.33327 8.42049 9.07943 9.16666 9.99993 9.16666C10.9204 9.16666 11.6666 8.42049 11.6666 7.49999C11.6666 8.42049 12.4128 9.16666 13.3333 9.16666C14.2538 9.16666 14.9999 8.42049 14.9999 7.49999C14.9999 8.42049 15.7461 9.16666 16.6666 9.16666C17.1978 9.16666 17.6708 8.91824 17.976 8.53124C18.4309 7.95436 18.1945 7.1492 17.9243 6.46606L16.7546 3.50927C16.3063 2.61275 16.0822 2.16449 15.6794 1.91557C15.2767 1.66666 14.7755 1.66666 13.7732 1.66666Z" stroke="#323949" stroke-linejoin="round"/>
<path opacity="0.5" d="M7.91669 17.9167V15.4167C7.91669 14.6378 7.91669 14.2484 8.08415 13.9583C8.19386 13.7683 8.35169 13.6105 8.54169 13.5008C8.83177 13.3333 9.22119 13.3333 10 13.3333C10.7789 13.3333 11.1683 13.3333 11.4584 13.5008C11.6484 13.6105 11.8062 13.7683 11.9159 13.9583C12.0834 14.2484 12.0834 14.6378 12.0834 15.4167V17.9167" stroke="#323949" stroke-linecap="round"/>
</svg>
