<svg width="35" height="35" viewBox="0 0 35 35" fill="none" xmlns="http://www.w3.org/2000/svg">
<g clip-path="url(#clip0_289_1179)">
<path d="M22.1086 22.157C24.6806 19.585 24.6806 15.415 22.1086 12.843C19.5366 10.271 15.3665 10.271 12.7945 12.843C10.2225 15.415 10.2225 19.585 12.7945 22.157C15.3665 24.729 19.5366 24.729 22.1086 22.157Z" stroke="#2882FF" stroke-linecap="round" stroke-linejoin="round"/>
<path d="M29.0941 29.1425C35.5241 22.7125 35.5241 12.2875 29.0941 5.85745C22.6641 -0.572552 12.239 -0.572552 5.80899 5.85745C-0.621011 12.2875 -0.621011 22.7125 5.80899 29.1425C12.239 35.5726 22.6641 35.5726 29.0941 29.1425Z" stroke="#2882FF" stroke-linecap="round" stroke-linejoin="round"/>
<path d="M5.97449 5.97461L12.5605 12.5606" stroke="#2882FF" stroke-linecap="round" stroke-linejoin="round"/>
<path d="M22.4395 12.5606L29.0255 5.97461" stroke="#2882FF" stroke-linecap="round" stroke-linejoin="round"/>
<path d="M22.4395 22.4395L29.0255 29.0255" stroke="#2882FF" stroke-linecap="round" stroke-linejoin="round"/>
<path d="M12.5605 22.4395L5.97449 29.0255" stroke="#2882FF" stroke-linecap="round" stroke-linejoin="round"/>
</g>
<defs>
<clipPath id="clip0_289_1179">
<rect width="35" height="35" fill="white"/>
</clipPath>
</defs>
</svg>
