<svg width="34" height="20" viewBox="0 0 34 20" fill="none" xmlns="http://www.w3.org/2000/svg">
<g id="upi-icon 1" clip-path="url(#clip0_913_3100)">
<path id="Vector" fill-rule="evenodd" clip-rule="evenodd" d="M4.49474 13.1577H4.68127L4.5066 13.8828C4.47997 13.9895 4.4859 14.0723 4.52138 14.1255C4.55695 14.1788 4.62198 14.2054 4.71966 14.2054C4.81433 14.2054 4.89423 14.1788 4.95644 14.1255C5.01854 14.0722 5.06005 13.9894 5.08668 13.8828L5.26125 13.1577H5.45069L5.27311 13.9006C5.23462 14.0604 5.16658 14.1818 5.06598 14.2617C4.9683 14.3416 4.83805 14.3831 4.67826 14.3831C4.51846 14.3831 4.40892 14.3446 4.34972 14.2646C4.29053 14.1847 4.27867 14.0634 4.31716 13.9036L4.49474 13.1578V13.1577ZM26.957 14.3505L27.241 13.1577H27.8891L27.8506 13.3235H27.3919L27.321 13.6223H27.7797L27.7381 13.7911H27.2795L27.1877 14.1757H27.6465L27.6051 14.3504H26.957V14.3505ZM26.9392 13.4478C26.8977 13.4005 26.8474 13.365 26.7942 13.3442C26.7408 13.3205 26.6817 13.3087 26.6136 13.3087C26.4863 13.3087 26.3739 13.3501 26.2733 13.433C26.1727 13.5159 26.1076 13.6255 26.075 13.7585C26.0453 13.8859 26.0572 13.9924 26.1165 14.0782C26.1727 14.161 26.2614 14.2025 26.3798 14.2025C26.4478 14.2025 26.516 14.1907 26.5839 14.164C26.6521 14.1404 26.7202 14.1018 26.7911 14.0516L26.7379 14.2706C26.6787 14.309 26.6166 14.3357 26.5514 14.3535C26.4862 14.3712 26.4211 14.3801 26.3502 14.3801C26.2614 14.3801 26.1814 14.3652 26.1134 14.3356C26.0452 14.306 25.9892 14.2616 25.9446 14.2025C25.9003 14.1462 25.8737 14.0782 25.8618 14.0013C25.8501 13.9243 25.853 13.8415 25.8767 13.7527C25.8974 13.664 25.9329 13.5839 25.9803 13.507C26.0277 13.43 26.0898 13.362 26.1608 13.3058C26.2318 13.2466 26.3088 13.2023 26.3917 13.1726C26.4745 13.1431 26.5573 13.1283 26.6432 13.1283C26.7112 13.1283 26.7734 13.1371 26.8327 13.1578C26.8888 13.1786 26.9421 13.2081 26.9894 13.2496L26.9392 13.4478ZM25.0983 13.8799H25.4208L25.3676 13.6076C25.3647 13.5899 25.3616 13.5691 25.3616 13.5484C25.3586 13.5248 25.3586 13.501 25.3586 13.4744C25.3468 13.501 25.335 13.5247 25.3201 13.5484C25.3083 13.572 25.2965 13.5928 25.2847 13.6106L25.0982 13.8799H25.0983ZM25.5097 14.3505L25.4505 14.0427H24.9888L24.7816 14.3505H24.5834L25.4415 13.1105L25.7079 14.3505H25.5097ZM23.9471 14.3505L24.2312 13.1577H24.8794L24.8409 13.3235H24.3821L24.3111 13.6194H24.7697L24.7283 13.7882H24.2696L24.1365 14.3474H23.947V14.3505H23.9471ZM23.3877 13.6639H23.4232C23.5238 13.6639 23.592 13.652 23.6305 13.6283C23.6688 13.6046 23.6956 13.5632 23.7103 13.5009C23.725 13.4358 23.7192 13.3885 23.6895 13.3619C23.6601 13.3352 23.5978 13.3203 23.5031 13.3203H23.4675L23.3876 13.6638L23.3877 13.6639ZM23.3404 13.8148L23.2131 14.3474H23.0355L23.3197 13.1548H23.5831C23.6601 13.1548 23.7192 13.1608 23.7577 13.1697C23.799 13.1786 23.8317 13.1963 23.8553 13.2199C23.8849 13.2496 23.9026 13.2851 23.9114 13.3324C23.9204 13.3769 23.9174 13.4272 23.9055 13.4834C23.8819 13.5781 23.8433 13.6551 23.7842 13.7083C23.725 13.7615 23.651 13.7941 23.5622 13.806L23.8316 14.3473H23.6184L23.3609 13.8147H23.3402L23.3404 13.8148ZM22.1714 14.3505L22.4556 13.1577H23.1067L23.0683 13.3235H22.6095L22.5385 13.6223H22.9972L22.9559 13.7911H22.4971L22.4055 14.1757H22.8641L22.8226 14.3504H22.1715L22.1714 14.3505ZM21.9673 13.3205L21.7217 14.3474H21.5323L21.778 13.3205H21.4701L21.5086 13.1548H22.3136L22.2752 13.3205H21.9674H21.9673ZM20.0407 14.3505L20.3367 13.1105L20.899 13.8385C20.9139 13.8592 20.9285 13.88 20.9433 13.9036C20.9581 13.9273 20.973 13.954 20.9906 13.9834L21.189 13.1577H21.3636L21.0676 14.3949L20.4935 13.652C20.4787 13.6313 20.4638 13.6106 20.4492 13.5898C20.4344 13.5662 20.4225 13.5454 20.4136 13.5187L20.2154 14.3473H20.0408V14.3504L20.0407 14.3505ZM19.579 14.3505L19.8631 13.1577H20.0525L19.7684 14.3505H19.579ZM18.1851 14.1108L18.3538 14.0397C18.3567 14.093 18.3714 14.1344 18.4041 14.161C18.4367 14.1877 18.481 14.2025 18.5402 14.2025C18.5964 14.2025 18.6438 14.1877 18.6852 14.1552C18.7266 14.1226 18.7533 14.0812 18.7651 14.028C18.7829 13.9569 18.7415 13.8947 18.6409 13.8415C18.6261 13.8326 18.6173 13.8267 18.6082 13.8237C18.4958 13.7586 18.4248 13.7024 18.3952 13.6492C18.3656 13.5959 18.3596 13.5337 18.3775 13.4598C18.4011 13.3622 18.4514 13.2852 18.5312 13.2231C18.6112 13.1639 18.7 13.1313 18.8066 13.1313C18.8924 13.1313 18.9604 13.1491 19.0107 13.1816C19.0611 13.2142 19.0877 13.2645 19.0965 13.3267L18.9309 13.4037C18.916 13.3652 18.8983 13.3385 18.8746 13.3207C18.851 13.3031 18.8214 13.2941 18.7858 13.2941C18.7354 13.2941 18.6911 13.3089 18.6557 13.3355C18.6201 13.3622 18.5965 13.3977 18.5846 13.4451C18.5669 13.5161 18.6173 13.5841 18.7325 13.6463C18.7415 13.6522 18.7473 13.6552 18.7533 13.658C18.8539 13.7113 18.922 13.7647 18.9515 13.8179C18.9812 13.8711 18.9871 13.9333 18.9694 14.0132C18.9427 14.1256 18.8865 14.2144 18.8006 14.2825C18.7148 14.3475 18.6141 14.3832 18.4958 14.3832C18.3982 14.3832 18.3212 14.3594 18.2679 14.3121C18.2087 14.2647 18.1821 14.1966 18.1851 14.1109V14.1108ZM17.9868 13.3205L17.7412 14.3474H17.5519L17.7975 13.3205H17.4898L17.5281 13.1548H18.3331L18.2946 13.3205H17.9868ZM16.0603 14.3505L16.3561 13.1105L16.9185 13.8385C16.9333 13.8592 16.9482 13.88 16.9629 13.9036C16.9776 13.9273 16.9925 13.954 17.0103 13.9834L17.2086 13.1577H17.3831L17.0873 14.3949L16.5131 13.652C16.4982 13.6313 16.4836 13.6106 16.4687 13.5898C16.4539 13.5662 16.4421 13.5454 16.4332 13.5187L16.2349 14.3473H16.0604V14.3504L16.0603 14.3505ZM15.1961 14.3505L15.4802 13.1577H16.1283L16.0898 13.3235H15.6311L15.5601 13.6223H16.0188L15.9774 13.7911H15.5187L15.4269 14.1757H15.8857L15.8442 14.3504H15.1961V14.3505ZM14.8824 13.7615C14.8824 13.7527 14.8853 13.726 14.8913 13.6846C14.8943 13.6491 14.8972 13.6224 14.9002 13.5987C14.8883 13.6255 14.8765 13.652 14.8617 13.6815C14.8469 13.7083 14.8292 13.7378 14.8085 13.7645L14.3527 14.4007L14.2048 13.7527C14.1988 13.7261 14.1929 13.6994 14.1899 13.6757C14.187 13.6521 14.184 13.6255 14.184 13.6017C14.178 13.6255 14.1692 13.652 14.1603 13.6815C14.1514 13.7083 14.1396 13.7378 14.1248 13.7675L13.8584 14.3535H13.6839L14.255 13.1105L14.4178 13.8621C14.4207 13.874 14.4237 13.8947 14.4268 13.9213C14.4297 13.9481 14.4356 13.9835 14.4415 14.0249C14.4622 13.9895 14.4889 13.9481 14.5244 13.8947C14.5333 13.88 14.5421 13.8711 14.5451 13.8621L15.0601 13.1105L15.0423 14.3535H14.8677L14.8826 13.7615H14.8824ZM13.0802 14.3505L13.2104 13.806L12.9736 13.1608H13.1718L13.3198 13.5663C13.3228 13.578 13.3257 13.5899 13.3316 13.6076C13.3375 13.6255 13.3406 13.6431 13.3464 13.6608C13.3583 13.6431 13.3701 13.6254 13.382 13.6076C13.3938 13.5899 13.4057 13.575 13.4174 13.5602L13.7638 13.1608H13.9531L13.3998 13.8029L13.2695 14.3473H13.0801V14.3504L13.0802 14.3505ZM12.2012 13.8799H12.5237L12.4704 13.6076C12.4674 13.5899 12.4645 13.5691 12.4645 13.5484C12.4615 13.5248 12.4615 13.501 12.4615 13.4744C12.4496 13.501 12.4378 13.5247 12.423 13.5484C12.4111 13.572 12.3994 13.5928 12.3874 13.6106L12.201 13.8799H12.2012ZM12.6095 14.3505L12.5503 14.0427H12.0886L11.8815 14.3505H11.6832L12.5415 13.1105L12.8078 14.3505H12.6095ZM11.4228 13.655H11.4702C11.5738 13.655 11.6478 13.6431 11.6892 13.6194C11.7306 13.5958 11.7572 13.5544 11.7721 13.4951C11.7867 13.433 11.7779 13.3857 11.7484 13.3621C11.7158 13.3354 11.6507 13.3236 11.5531 13.3236H11.5058L11.4228 13.6551V13.655ZM11.3725 13.8148L11.2453 14.3505H11.0677L11.3518 13.1577H11.6388C11.7246 13.1577 11.7838 13.1637 11.8223 13.1725C11.8608 13.1814 11.8905 13.1962 11.9141 13.2198C11.9436 13.2465 11.9643 13.285 11.9733 13.3323C11.9821 13.3797 11.9792 13.43 11.9673 13.4862C11.9526 13.5424 11.9319 13.5957 11.8993 13.643C11.8667 13.6904 11.8283 13.7289 11.7868 13.7555C11.7514 13.7762 11.7129 13.7939 11.6715 13.8028C11.6301 13.8117 11.5649 13.8177 11.482 13.8177H11.3726V13.8147L11.3725 13.8148ZM9.60572 14.1729H9.76551C9.85134 14.1729 9.91938 14.1669 9.96681 14.1552C10.0141 14.1434 10.0556 14.1226 10.094 14.096C10.1473 14.0575 10.1917 14.0102 10.2272 13.951C10.2628 13.8947 10.2894 13.8267 10.3071 13.7498C10.3248 13.6728 10.3307 13.6077 10.3219 13.5516C10.313 13.4952 10.2923 13.445 10.2568 13.4065C10.2301 13.3769 10.1976 13.3591 10.1532 13.3473C10.1088 13.3354 10.0408 13.3296 9.9431 13.3296H9.80702L9.60572 14.173V14.1729ZM9.37487 14.3505L9.65908 13.1577H9.91355C10.0793 13.1577 10.1947 13.1666 10.2568 13.1844C10.319 13.2022 10.3721 13.2288 10.4136 13.2702C10.4669 13.3235 10.5025 13.3916 10.5172 13.4714C10.532 13.5543 10.5261 13.649 10.5025 13.7526C10.4757 13.8591 10.4373 13.9508 10.3841 14.0336C10.3308 14.1165 10.2628 14.1816 10.1829 14.2349C10.1237 14.2764 10.0586 14.303 9.98752 14.3207C9.91948 14.3385 9.81586 14.3473 9.67969 14.3473H9.37487V14.3504V14.3505ZM8.50777 14.3505L8.79188 13.1577H9.44L9.40151 13.3235H8.94273L8.87168 13.6223H9.33045L9.28905 13.7911H8.83027L8.73851 14.1757H9.19729L9.15589 14.3504H8.50777V14.3505ZM8.04899 14.3505L8.3331 13.1577H8.52244L8.23833 14.3505H8.04889H8.04899ZM7.19073 14.3505L7.47484 13.1577H8.12296L8.08447 13.3235H7.62579L7.55474 13.6194H8.01341L7.97201 13.7882H7.51323L7.38007 14.3474H7.19063V14.3505H7.19073ZM6.73195 14.3505L7.01606 13.1577H7.2054L6.92129 14.3505H6.73185H6.73195ZM5.42396 14.3505L5.71983 13.1105L6.28212 13.8385C6.29689 13.8592 6.31166 13.88 6.32654 13.9036C6.34131 13.9273 6.35609 13.954 6.37387 13.9834L6.57216 13.1577H6.74672L6.45086 14.3949L5.87671 13.652C5.86193 13.6313 5.84716 13.6106 5.83228 13.5898C5.81751 13.5662 5.80565 13.5454 5.79681 13.5187L5.59852 14.3473H5.42396V14.3504V14.3505Z" fill="#3A3734"/>
<path id="Vector_2" fill-rule="evenodd" clip-rule="evenodd" d="M23.5121 12.119H22.213L24.0182 5.5993H25.3174L23.5121 12.119ZM12.7161 11.7105C12.6451 11.968 12.4083 12.1485 12.142 12.1485H5.44483C5.26132 12.1485 5.12524 12.0863 5.0364 11.9621C4.94766 11.8377 4.92696 11.6838 4.98022 11.5004L6.61383 5.61709H7.91308L6.45404 10.873H11.6508L13.1098 5.61709H14.409L12.7162 11.7105H12.7161ZM22.8374 5.80352C22.7486 5.6792 22.6095 5.61709 22.4201 5.61709H15.282L14.9298 6.89554H21.4229L21.0441 8.25991H15.8503V8.2569H14.5511L13.4739 12.1486H14.773L15.4951 9.53836H21.3341C21.5176 9.53836 21.6893 9.47615 21.8491 9.35194C22.0089 9.22762 22.1155 9.07375 22.1657 8.89024L22.8878 6.28008C22.944 6.08481 22.9263 5.92794 22.8375 5.80362L22.8374 5.80352Z" fill="#716D6A"/>
<path id="Vector_3" fill-rule="evenodd" clip-rule="evenodd" d="M27.5611 5.61115L29.2036 8.87837L25.75 12.1456L26.1607 10.6635L28.0495 8.87837L27.151 7.09099L27.5611 5.61115Z" fill="#0E8635"/>
<path id="Vector_4" fill-rule="evenodd" clip-rule="evenodd" d="M26.408 5.61115L28.0504 8.87837L24.5938 12.1456L26.408 5.61115Z" fill="#E97208"/>
<path id="Vector_5" d="M3.15215 0H30.3473C31.2147 0 32.0029 0.35456 32.5739 0.925596C33.1451 1.49673 33.4996 2.28494 33.4996 3.15225V16.8477C33.4996 17.715 33.145 18.5032 32.5739 19.0743C32.0028 19.6453 31.2146 20 30.3474 20H3.15225C2.28505 20 1.49673 19.6454 0.925596 19.0743C0.35456 18.5033 0 17.7152 0 16.8477V3.15225C0 2.28484 0.35456 1.49663 0.925596 0.925596C1.49663 0.35456 2.28494 0 3.15235 0H3.15215ZM30.3473 1.08649H3.15215C2.58463 1.08649 2.06827 1.31915 1.69361 1.69381C1.31895 2.06847 1.08629 2.58483 1.08629 3.15235V16.8478C1.08629 17.4153 1.31895 17.9316 1.69361 18.3063C2.06837 18.6811 2.58473 18.9137 3.15215 18.9137H30.3473C30.9146 18.9137 31.431 18.6811 31.8057 18.3063C32.1804 17.9315 32.4131 17.4152 32.4131 16.8479V3.15245C32.4131 2.58514 32.1805 2.06867 31.8058 1.69391C31.4312 1.31925 30.9147 1.08659 30.3473 1.08659V1.08649Z" fill="#808080"/>
</g>
<defs>
<clipPath id="clip0_913_3100">
<rect width="33.4997" height="20" fill="white"/>
</clipPath>
</defs>
</svg>
