<svg xmlns="http://www.w3.org/2000/svg" viewBox="0 0 220 220"><defs><style>.cls-1{fill:none;}.cls-2{fill:#ff1f5a;}.cls-3{fill:#ffd615;}.cls-4{fill:#1e2a78;}</style></defs><g id="BACKGROUND"><rect class="cls-1" width="220" height="220"/></g><g id="OBJECT"><path class="cls-2" d="M133.63,105.38a32.49,32.49,0,0,0-5.49,17s5.38,1.35,5.49-2-2.41-4.13,0-5.86,5-4.39,3.66-7.06A3.19,3.19,0,0,0,133.63,105.38Z"/><path class="cls-3" d="M123.18,77.26s-2.57,19.93,11.55,21S151,93.16,151,93.16a27.5,27.5,0,0,1-4-6.49c-1.32-3.34-5.54-14-12.55-14.89S124.7,75.65,123.18,77.26Z"/><path class="cls-4" d="M168.53,108.63c-2.32-4.3-6.2-7.25-9.95-10.11-4.52-3.44-8.79-6.69-10.7-12.14-3.41-9.74-8.84-15.56-14.53-15.56a7.85,7.85,0,0,0-1.19.09h-.11a8.79,8.79,0,0,0-3.41.68c-3.4,1.45-8.67,6.81-8.69,11,0,.86-3,1.63-5.06,2.14-3.63.92-7.38,1.88-6.84,4.72a12.72,12.72,0,0,0,4.17,7.72.52.52,0,0,0,.11.1c2.35,2,6,3.71,11.9,4.27,2.27.57,2.24,2.43,1.59,7.13-.57,4.17-1.29,9.37,1.58,14.11a.87.87,0,0,0,1,.39.86.86,0,0,0,.63-.83c0-.19.34-18.72,14.9-23.33v5.87a4.55,4.55,0,0,0-3.7,3.77,1.9,1.9,0,0,0,1.74,2.07,3.09,3.09,0,0,0,3.68-2.42.86.86,0,0,0,0-.16v-1.58c4,.53,6.13,2.68,7,6.93a.88.88,0,0,0,.85.69h2.05a3.18,3.18,0,0,0,.4,1.53,3,3,0,0,0,1.38,1.2,12.19,12.19,0,0,1-.44,1.52,5,5,0,0,1-4.33,2.1h0a.87.87,0,0,0,0,1.73h.23a6.83,6.83,0,0,0,2.11-.32,9.37,9.37,0,0,1-4,2.61,8.33,8.33,0,0,0-5,4.51c-2.56,5.62.31,13.81,1.25,16.18a.84.84,0,0,0,.64.53l.16,0a.88.88,0,0,0,.64-.28C149.57,144.39,173.68,118.16,168.53,108.63ZM143.9,108a1.42,1.42,0,0,1-1.72,1c-.22,0-.26-.07-.25-.28a2.82,2.82,0,0,1,2-2.06ZM132.29,72.64A6.16,6.16,0,0,1,138,77.09c.33,1,.7,2.17,1.08,3.32,1.72,5.21,3.86,11.69,2,14.24-.79,1.1-2.37,1.46-4.77,1.09-5.42-.81-7.39-7.25-7.42-13S130.62,73,132.29,72.64Zm-20,14.6a5.86,5.86,0,0,1,0,3.86,2.93,2.93,0,0,1-1.46,1.42,13.42,13.42,0,0,1-1.07-3.4C109.6,88.35,110.77,87.74,112.3,87.24Zm45.12,27.6a1.38,1.38,0,0,1-.18-.67h.4q0,.38-.06.87A1.56,1.56,0,0,1,157.42,114.84Zm-9.2,28.44c-1.53-4.4-2.44-9.91-.8-13.51a6.61,6.61,0,0,1,4-3.6,11.13,11.13,0,0,0,7-6.94s0,0,0,0a.76.76,0,0,0,.11-.35,14.76,14.76,0,0,0,.58-2.26.21.21,0,0,0,0-.07c0-.05,0-.09,0-.13a14.5,14.5,0,0,0,.2-3.14.86.86,0,0,0-.86-.8h-4.33c-1.14-4.59-3.94-7.09-8.53-7.63v-7a.86.86,0,0,0-.34-.68.85.85,0,0,0-.74-.15c-12.7,3.26-16.06,15.76-17,21.88-1-3.41-.47-7,0-10,.57-4.16,1.11-8.09-3-9l-.12,0a25.28,25.28,0,0,1-7.3-1.66h.15a10.83,10.83,0,0,0,6.21-1.8.87.87,0,1,0-1-1.42c-3.58,2.47-8.3,1.16-9.21.87A10.26,10.26,0,0,1,111.7,94a4.63,4.63,0,0,0,2.15-2.2,7.57,7.57,0,0,0,.11-5.07l1.36-.35c3.27-.83,6.35-1.62,6.36-3.81,0-3.26,4.67-8.09,7.55-9.37-1.37,2.31-2,6-2,9.52,0,6.48,2.39,13.74,8.89,14.72,3.1.46,5.24-.15,6.44-1.79,2.36-3.28.16-9.93-1.78-15.8-.38-1.14-.75-2.24-1.08-3.33a9.77,9.77,0,0,0-.76-1.63c2.84,2.42,5.44,6.6,7.34,12,2.08,5.94,6.76,9.5,11.28,13,3.77,2.87,7.33,5.58,9.48,9.55C170.64,116.16,155.48,135.22,148.22,143.28Z"/><path class="cls-4" d="M152.2,119.2h0a5.19,5.19,0,0,0-.64.2,6.73,6.73,0,0,0-.63.29,5.93,5.93,0,0,0-.66.41c-.1.09-.21.17-.3.26a3.32,3.32,0,0,0-.26.28,1.76,1.76,0,0,0-.21.29,2.79,2.79,0,0,0-.16.28l-.1.24a1.36,1.36,0,0,0-.06.2l-.05.17.06-.16c0-.06.05-.12.08-.19l.13-.23a1.05,1.05,0,0,1,.18-.25,1.79,1.79,0,0,1,.23-.26,2.1,2.1,0,0,1,.27-.24,3.46,3.46,0,0,1,.31-.22,5.24,5.24,0,0,1,1.27-.54,5,5,0,0,1,.61-.13h0a.21.21,0,0,0,.16-.24A.22.22,0,0,0,152.2,119.2Z"/><path class="cls-4" d="M152.26,118.54H152a4.58,4.58,0,0,0-.61,0,5.11,5.11,0,0,0-.86.16,4.65,4.65,0,0,0-.91.36,2.6,2.6,0,0,0-.42.29,2.28,2.28,0,0,0-.36.33l-.15.17-.12.19-.11.17a1.42,1.42,0,0,0-.08.18c-.05.12-.1.22-.13.31s-.05.19-.07.26l0,.21s0-.07.07-.21l.08-.24c0-.1.1-.19.15-.3l.09-.17.13-.16.12-.17.16-.15a2.54,2.54,0,0,1,.36-.29,2.46,2.46,0,0,1,.42-.23,3.67,3.67,0,0,1,.89-.28,5,5,0,0,1,.81-.09,4,4,0,0,1,.78,0h0a.2.2,0,0,0,.22-.19A.21.21,0,0,0,152.26,118.54Z"/><path class="cls-4" d="M152.27,117.82l-.07,0-.21,0a7.48,7.48,0,0,0-.75,0l-.5,0a3.6,3.6,0,0,0-.55.07,5.45,5.45,0,0,0-.58.14,5.71,5.71,0,0,0-.58.21,4.54,4.54,0,0,0-.53.3l-.25.17-.22.2-.21.19c0,.08-.11.15-.16.22l-.16.2-.12.21c-.07.13-.14.25-.19.36s-.08.22-.11.3l-.09.26.11-.25c0-.08.08-.18.12-.29s.14-.22.22-.35l.12-.2c.06,0,.11-.12.17-.18s.11-.13.17-.2l.21-.17.22-.18.25-.15a3.22,3.22,0,0,1,.53-.25,5.18,5.18,0,0,1,.56-.17,3.63,3.63,0,0,1,.56-.09,3.23,3.23,0,0,1,.53,0c.16,0,.33,0,.47,0a6,6,0,0,1,1,.12h0a.19.19,0,0,0,.22-.17A.18.18,0,0,0,152.27,117.82Z"/><path class="cls-4" d="M62.06,119.63H59.24l-.56,1.3H57.6l2.54-5.64h1l2.54,5.64H62.63Zm-.34-.83-1.07-2.46-1.06,2.46Z"/><path class="cls-4" d="M73.49,115.29v5.64h-.86l-3.12-3.82v3.82h-1v-5.64h.87l3.11,3.82v-3.82Z"/><path class="cls-4" d="M79,115.29h1v5.64H79Z"/><path class="cls-4" d="M90.83,120.93v-3.74L89,120.29H88.5l-1.86-3.05v3.69h-1v-5.64h.87L88.75,119l2.2-3.74h.86v5.64Z"/><path class="cls-4" d="M101,119.63H98.22l-.56,1.3H96.58l2.54-5.64h1l2.55,5.64h-1.1Zm-.35-.83-1.06-2.46-1.06,2.46Z"/><path class="cls-4" d="M107.45,115.29h1V120h3v.89h-4Z"/><path class="cls-4" d="M116.76,120.83a2.62,2.62,0,0,1-1-.5l.36-.81a3,3,0,0,0,.85.45,3.24,3.24,0,0,0,1,.17,1.75,1.75,0,0,0,.94-.2.6.6,0,0,0,.31-.53.48.48,0,0,0-.17-.4,1.18,1.18,0,0,0-.44-.25c-.18-.06-.42-.13-.72-.2a6.85,6.85,0,0,1-1-.31,1.77,1.77,0,0,1-.68-.47,1.34,1.34,0,0,1-.29-.89,1.49,1.49,0,0,1,.25-.85,1.71,1.71,0,0,1,.77-.61,3.1,3.1,0,0,1,1.25-.23,4.32,4.32,0,0,1,1,.13,3.23,3.23,0,0,1,.86.37l-.33.82a3.51,3.51,0,0,0-.77-.33,3.15,3.15,0,0,0-.78-.12,1.64,1.64,0,0,0-.93.21.66.66,0,0,0-.3.56.53.53,0,0,0,.17.4,1.32,1.32,0,0,0,.44.24c.18.06.42.13.73.2a9.06,9.06,0,0,1,1,.3,1.76,1.76,0,0,1,.69.48,1.29,1.29,0,0,1,.29.87,1.5,1.5,0,0,1-.26.85,1.72,1.72,0,0,1-.77.61A3.13,3.13,0,0,1,118,121,4.46,4.46,0,0,1,116.76,120.83Z"/><path class="cls-4" d="M61.61,130.83a5.4,5.4,0,0,1,2,2.28,8.8,8.8,0,0,1,0,7,5.43,5.43,0,0,1-2,2.29,5.19,5.19,0,0,1-2.84.79,4.63,4.63,0,0,1-2.54-.67,3.8,3.8,0,0,1-1.54-1.82v7.86a.6.6,0,0,1-.6.6H51.35a.6.6,0,0,1-.6-.6V130.79a.6.6,0,0,1,.6-.6h2.74a.6.6,0,0,1,.6.6v1.13c0,.33.14.37.31.09a4,4,0,0,1,3.77-2A5.2,5.2,0,0,1,61.61,130.83Zm-6.15,3.5a3.66,3.66,0,0,0,0,4.57,2.87,2.87,0,0,0,4.08,0,3.82,3.82,0,0,0,0-4.6,2.91,2.91,0,0,0-4.08,0Z"/><path class="cls-4" d="M77.31,137.34H69a.49.49,0,0,0-.5.59,3.35,3.35,0,0,0,.64,1.49,2.37,2.37,0,0,0,1.7.63,2.33,2.33,0,0,0,1.45-.43,2,2,0,0,0,.76-1.13h3.57a.41.41,0,0,1,.42.57,6.61,6.61,0,0,1-.92,1.86A5.85,5.85,0,0,1,74,142.6a6.8,6.8,0,0,1-2.93.61,6.91,6.91,0,0,1-3.35-.79,5.73,5.73,0,0,1-2.29-2.29,7.88,7.88,0,0,1,0-7,5.59,5.59,0,0,1,2.29-2.28,7.52,7.52,0,0,1,6.73,0,5.46,5.46,0,0,1,2.24,2.2,6.43,6.43,0,0,1,.8,3.26A5.29,5.29,0,0,1,77.31,137.34Zm-4.55-3.56a2.46,2.46,0,0,0-1.74-.64,2.56,2.56,0,0,0-1.79.65,2.68,2.68,0,0,0-.81,1.89h5A2.34,2.34,0,0,0,72.76,133.78Z"/><path class="cls-4" d="M85,139.67a.6.6,0,0,1,.6.6v2.18a.6.6,0,0,1-.6.6h-.58a9.51,9.51,0,0,1-1.19-.08,7.15,7.15,0,0,1-2.92-1,4.71,4.71,0,0,1-1.25-3.7v-4.12a.6.6,0,0,0-.6-.6h-.53a.6.6,0,0,1-.6-.6v-2.12a.6.6,0,0,1,.6-.6h.53a.6.6,0,0,0,.6-.6v-2a.6.6,0,0,1,.59-.6h2.75a.6.6,0,0,1,.6.6v2a.6.6,0,0,0,.59.6H85a.6.6,0,0,1,.6.6v2.12a.6.6,0,0,1-.6.6H83.6a.6.6,0,0,0-.59.6v3.6a11.87,11.87,0,0,0,.07,1.19.87.87,0,0,0,.24.47,1.51,1.51,0,0,0,1.05.3Z"/><path class="cls-4" d="M95.25,131.25a5.27,5.27,0,0,1,1.83,3.23H94a.92.92,0,0,1-.81-.56,1.66,1.66,0,0,0-.52-.67,2.21,2.21,0,0,0-1.42-.45,1.56,1.56,0,0,0-1,.28,1,1,0,0,0-.34.82,1,1,0,0,0,.63.9,10.13,10.13,0,0,0,2,.6,21.55,21.55,0,0,1,2.42.7,4,4,0,0,1,1.64,1.17,3.2,3.2,0,0,1,.69,2.16,3.32,3.32,0,0,1-.6,2,4,4,0,0,1-1.73,1.34,6.77,6.77,0,0,1-2.67.48,6.85,6.85,0,0,1-4.17-1.15,4.81,4.81,0,0,1-1.91-3.29h3.2a.84.84,0,0,1,.77.57,1.45,1.45,0,0,0,.53.69,2.66,2.66,0,0,0,1.58.44,1.45,1.45,0,0,0,1-.31,1.06,1.06,0,0,0,.35-.82,1,1,0,0,0-.64-1,12.25,12.25,0,0,0-2.06-.61,15.66,15.66,0,0,1-2.35-.64A3.89,3.89,0,0,1,87,136a3.14,3.14,0,0,1-.67-2.11,3.45,3.45,0,0,1,1.32-2.8A5.73,5.73,0,0,1,91.35,130,5.91,5.91,0,0,1,95.25,131.25Z"/><path class="cls-4" d="M110,131.53a5.94,5.94,0,0,1,1.3,4.06v6.86a.6.6,0,0,1-.6.6h-2.74a.6.6,0,0,1-.6-.6v-5.8a9.55,9.55,0,0,0-.09-1.2,3.15,3.15,0,0,0-.59-1.42,2.36,2.36,0,0,0-1.81-.73,2.48,2.48,0,0,0-1.9.76,3.08,3.08,0,0,0-.7,2.17v6.22a.6.6,0,0,1-.6.6H98.9a.59.59,0,0,1-.59-.6V126.6a.59.59,0,0,1,.59-.6h2.75a.6.6,0,0,1,.6.6v5.34c0,.34.15.38.33.1a5.13,5.13,0,0,1,1.31-1.32,4.89,4.89,0,0,1,2.57-.66A4.43,4.43,0,0,1,110,131.53Z"/><path class="cls-4" d="M122.17,130.83a5.87,5.87,0,0,1,2.37,2.29,7.57,7.57,0,0,1,0,7,5.93,5.93,0,0,1-2.37,2.29,7.84,7.84,0,0,1-6.86,0,5.83,5.83,0,0,1-2.38-2.29,7.5,7.5,0,0,1,0-7,5.77,5.77,0,0,1,2.38-2.29,7.75,7.75,0,0,1,6.86,0Zm-5.33,3.43a3.32,3.32,0,0,0-.77,2.36,3.28,3.28,0,0,0,.77,2.35,2.53,2.53,0,0,0,1.9.81,2.47,2.47,0,0,0,1.89-.81,3.27,3.27,0,0,0,.76-2.35,3.32,3.32,0,0,0-.76-2.36,2.44,2.44,0,0,0-1.89-.82A2.51,2.51,0,0,0,116.84,134.26Z"/><path class="cls-4" d="M137.17,130.83a5.54,5.54,0,0,1,2,2.28,8.92,8.92,0,0,1,0,7,5.57,5.57,0,0,1-2,2.29,5.22,5.22,0,0,1-2.85.79,4.59,4.59,0,0,1-2.53-.67,3.82,3.82,0,0,1-1.55-1.82v7.86a.6.6,0,0,1-.6.6H126.9a.6.6,0,0,1-.6-.6V130.79a.6.6,0,0,1,.6-.6h2.74a.6.6,0,0,1,.6.6v1.13c0,.33.14.37.31.09a4.7,4.7,0,0,1,1.24-1.31,4.59,4.59,0,0,1,2.53-.67A5.23,5.23,0,0,1,137.17,130.83Zm-6.16,3.5a3.7,3.7,0,0,0,0,4.57,2.67,2.67,0,0,0,2,.86,2.63,2.63,0,0,0,2-.84,3.82,3.82,0,0,0,0-4.6,2.65,2.65,0,0,0-2-.83A2.68,2.68,0,0,0,131,134.33Z"/></g></svg>